<?xml version="1.0" encoding="utf-8"?>
<!-- Generator: Adobe Illustrator 27.0.1, SVG Export Plug-In . SVG Version: 6.00 Build 0)  -->
<svg version="1.1" id="Layer_1" xmlns="http://www.w3.org/2000/svg" xmlns:xlink="http://www.w3.org/1999/xlink" x="0px" y="0px"
	 viewBox="0 0 612 792" style="enable-background:new 0 0 612 792;" xml:space="preserve">
<style type="text/css">
	.st0{fill:none;}
	.st1{enable-background:new    ;}
	.st2{fill:#FFFFFF;}
	.st3{fill:#2868F7;}
	.st4{font-family:'AvenirNext-Regular';}
	.st5{font-size:40px;}
	.st6{display:none;}
	.st7{fill:none;stroke:#000000;stroke-width:5;stroke-miterlimit:10;}
</style>
<g id="Layer_1_00000093154160762744231770000012842036143722749582_">
	<rect x="-2.2" width="614.2" height="792"/>
	<rect x="19.8" y="68.1" class="st0" width="570.2" height="73.8"/>
	<g>
		<g class="st1">
			<path class="st2" d="M123.2,61.1c-0.4,0-2,0-4.9,0c-2.9,0-7.2,0-13.1,0c0,5-0.1,8.8-0.1,11.4c0,2.6,0,6.1,0,10.6
				c0,4.3,0,8.7,0.1,13.1c0,4.4,0.1,7.4,0.1,8.9h-6c0-1.5,0.1-4.5,0.1-9c0-4.5,0.1-8.9,0.1-13.3c0-4.3,0-7.6,0-10.1
				c0-2.5,0-6.4-0.1-11.6c-5.2,0-9.4,0-12.7,0c-3.2,0-5,0.1-5.3,0.1v-5.1c2.5,0,5.6,0,9.2,0c3.6,0,7.4,0,11.5,0c5.9,0,10.8,0,14.8,0
				s6.1,0,6.4,0V61.1z"/>
			<path class="st2" d="M160.7,105h-5.8c0-0.7,0.1-2.9,0.1-6.6c0-3.7,0.1-6.1,0.1-7.3c0-1.3,0-3.1,0-5.6c0-2.5,0-4.3-0.1-5.4
				c-0.1-2.8-0.6-4.8-1.6-6c-1-1.2-2.7-1.8-5.2-1.8c-1.4,0-3.2,0.4-5.3,1.3c-2.2,0.8-4.5,2-6.9,3.4l0.1,28.2h-5.8
				c0-1,0.1-4.8,0.1-11.5c0-6.7,0.1-12.3,0.1-16.6c0-2.8,0-6.4,0-10.7c0-4.3-0.1-9.3-0.1-14.8h5.8l-0.1,20.8l0,0
				c3.5-2,6.3-3.3,8.6-4.1c2.2-0.8,4.1-1.1,5.7-1.1c3.1,0,5.6,1,7.5,2.9s2.8,4.7,2.8,8.1c0,3.1,0,5.7-0.1,8c0,2.2-0.1,4-0.1,5.4
				c0,2.2,0,4.8,0.1,7.7C160.6,101.9,160.7,103.9,160.7,105z"/>
			<path class="st2" d="M202.5,85.1H176c0,2.6,0.6,5,1.6,7.1c1.1,2.2,2.7,3.9,4.9,5.4c1.4,0.9,3,1.6,4.8,2c1.8,0.5,4,0.7,6.5,0.7
				c1.4,0,2.7,0,3.8-0.1c1.2-0.1,1.9-0.1,2.1-0.1l-0.7,4.9c-0.2,0-0.8,0.1-1.9,0.1s-2.4,0.1-3.9,0.1c-3.9,0-7.3-0.5-10.2-1.5
				c-2.9-1-5.3-2.4-7.1-4.2c-1.6-1.5-2.9-3.4-4-5.7c-1.1-2.3-1.7-4.9-1.7-7.7c0-2.8,0.4-5.3,1.2-7.5c0.8-2.2,2.1-4.3,3.7-6.3
				c1.4-1.7,3.2-2.9,5.4-3.8c2.1-0.9,4.4-1.4,6.6-1.4c2.3,0,4.3,0.3,6,1s3.3,1.7,4.6,3.1c1.4,1.6,2.5,3.5,3.3,5.8
				C202,79.2,202.4,81.9,202.5,85.1z M196.8,81c-0.4-3-1.4-5.4-3.1-7.1c-1.7-1.7-3.9-2.6-6.6-2.6c-2.7,0-5,0.9-6.8,2.6
				c-1.8,1.7-3.1,4.1-3.8,7.1H196.8z"/>
			<path class="st2" d="M266.5,61.1c-0.4,0-2,0-4.9,0c-2.9,0-7.2,0-13.1,0c0,5-0.1,8.8-0.1,11.4c0,2.6,0,6.1,0,10.6
				c0,4.3,0,8.7,0.1,13.1c0,4.4,0.1,7.4,0.1,8.9h-6c0-1.5,0.1-4.5,0.1-9c0-4.5,0.1-8.9,0.1-13.3c0-4.3,0-7.6,0-10.1
				c0-2.5,0-6.4-0.1-11.6c-5.2,0-9.4,0-12.7,0c-3.2,0-5,0.1-5.3,0.1v-5.1c2.5,0,5.6,0,9.2,0c3.6,0,7.4,0,11.5,0c5.9,0,10.8,0,14.8,0
				s6.1,0,6.4,0V61.1z"/>
			<path class="st2" d="M302.2,85.1h-26.5c0,2.6,0.6,5,1.6,7.1c1.1,2.2,2.7,3.9,4.9,5.4c1.4,0.9,3,1.6,4.8,2c1.8,0.5,4,0.7,6.5,0.7
				c1.4,0,2.7,0,3.8-0.1c1.2-0.1,1.9-0.1,2.1-0.1l-0.7,4.9c-0.2,0-0.8,0.1-1.9,0.1s-2.4,0.1-3.9,0.1c-3.9,0-7.3-0.5-10.2-1.5
				c-2.9-1-5.3-2.4-7.1-4.2c-1.6-1.5-2.9-3.4-4-5.7c-1.1-2.3-1.7-4.9-1.7-7.7c0-2.8,0.4-5.3,1.2-7.5c0.8-2.2,2.1-4.3,3.7-6.3
				c1.4-1.7,3.2-2.9,5.4-3.8c2.1-0.9,4.4-1.4,6.6-1.4c2.3,0,4.3,0.3,6,1s3.3,1.7,4.6,3.1c1.4,1.6,2.5,3.5,3.3,5.8
				C301.8,79.2,302.1,81.9,302.2,85.1z M296.5,81c-0.4-3-1.4-5.4-3.1-7.1c-1.7-1.7-3.9-2.6-6.6-2.6c-2.7,0-5,0.9-6.8,2.6
				c-1.8,1.7-3.1,4.1-3.8,7.1H296.5z"/>
			<path class="st2" d="M318,105h-5.8c0-0.3,0.1-3.9,0.1-10.7c0-6.8,0.1-12.5,0.1-17c0-2.9,0-6.6,0-11c0-4.4-0.1-9.4-0.1-14.9h5.8
				c0,3.8-0.1,8.1-0.1,13.1c0,4.9,0,9.1,0,12.5c0,7.4,0,13.9,0.1,19.4S318,104.7,318,105z"/>
			<path class="st2" d="M338,105h-5.8c0-0.3,0.1-3.9,0.1-10.7c0-6.8,0.1-12.5,0.1-17c0-2.9,0-6.6,0-11c0-4.4-0.1-9.4-0.1-14.9h5.8
				c0,3.8-0.1,8.1-0.1,13.1c0,4.9,0,9.1,0,12.5c0,7.4,0,13.9,0.1,19.4S338,104.7,338,105z"/>
			<path class="st2" d="M367.9,86.2H348v-4.9h19.9V86.2z"/>
			<path class="st2" d="M413.1,61.1c-0.4,0-2,0-4.9,0c-2.9,0-7.2,0-13.1,0c0,5-0.1,8.8-0.1,11.4c0,2.6,0,6.1,0,10.6
				c0,4.3,0,8.7,0.1,13.1c0,4.4,0.1,7.4,0.1,8.9h-6c0-1.5,0.1-4.5,0.1-9c0-4.5,0.1-8.9,0.1-13.3c0-4.3,0-7.6,0-10.1
				c0-2.5,0-6.4-0.1-11.6c-5.2,0-9.4,0-12.7,0c-3.2,0-5,0.1-5.3,0.1v-5.1c2.5,0,5.6,0,9.2,0c3.6,0,7.4,0,11.5,0c5.9,0,10.8,0,14.8,0
				c4,0,6.1,0,6.4,0V61.1z"/>
			<path class="st2" d="M445.6,84.1c0,6.1,0,11,0,14.8s0,5.9,0,6.2c-0.2,0-1.4,0.1-3.4,0.3s-4.6,0.2-7.8,0.2c-2,0-4-0.2-6-0.5
				c-2-0.4-3.8-0.9-5.2-1.6c-2-0.9-3.5-2.1-4.7-3.7c-1.2-1.6-1.8-3.4-1.8-5.6c0-2.3,0.7-4.3,2.1-6c1.4-1.7,3.4-3.1,6-4.1
				c1.6-0.7,3.7-1.3,6.4-1.8c2.6-0.5,5.7-0.9,9.1-1.2c-0.1-1.9-0.6-3.5-1.4-4.7s-2-2.1-3.6-2.8c-1.1-0.4-2.3-0.8-3.6-0.9
				c-1.3-0.2-2.9-0.3-4.6-0.3c-1.1,0-2,0-2.8,0.1c-0.8,0-1.8,0.1-3.1,0.2l0.6-4.9c0.4,0,1.1-0.1,2.2-0.1c1.1-0.1,2.6-0.1,4.4-0.1
				c2.9,0,5.5,0.3,7.7,0.9c2.3,0.6,4.1,1.6,5.6,2.9c1.4,1.3,2.4,2.8,3.1,4.7C445.2,77.9,445.6,80.6,445.6,84.1z M440,93
				c0-0.8,0-1.9,0-3.1s0-2.7,0-4.4c-1.1,0-3,0.3-5.6,0.6c-2.7,0.4-4.9,0.9-6.8,1.6c-1.4,0.5-2.6,1.3-3.6,2.3c-1.1,1-1.6,2.3-1.6,3.8
				c0,1.7,0.5,3,1.4,4c0.9,1,2.1,1.8,3.7,2.3c1.2,0.4,2.5,0.7,4,0.9c1.5,0.2,3,0.3,4.6,0.3c0.5,0,1.1,0,1.8,0s1.5,0,2.2-0.1
				c0-0.2,0-1,0-2.4C440,97.3,440,95.4,440,93z"/>
			<path class="st2" d="M464.8,105h-5.8c0-0.3,0.1-3.9,0.1-10.7c0-6.8,0.1-12.5,0.1-17c0-2.9,0-6.6,0-11c0-4.4-0.1-9.4-0.1-14.9h5.8
				c0,3.8-0.1,8.1-0.1,13.1c0,4.9,0,9.1,0,12.5c0,7.4,0,13.9,0.1,19.4C464.8,101.8,464.8,104.7,464.8,105z"/>
			<path class="st2" d="M507.2,85.1h-26.5c0,2.6,0.6,5,1.6,7.1c1.1,2.2,2.7,3.9,4.9,5.4c1.4,0.9,3,1.6,4.8,2c1.8,0.5,4,0.7,6.5,0.7
				c1.4,0,2.7,0,3.8-0.1c1.2-0.1,1.9-0.1,2.1-0.1l-0.7,4.9c-0.2,0-0.8,0.1-1.9,0.1s-2.4,0.1-3.9,0.1c-3.9,0-7.3-0.5-10.2-1.5
				c-2.9-1-5.3-2.4-7.1-4.2c-1.6-1.5-2.9-3.4-4-5.7c-1.1-2.3-1.7-4.9-1.7-7.7c0-2.8,0.4-5.3,1.2-7.5c0.8-2.2,2.1-4.3,3.7-6.3
				c1.4-1.7,3.2-2.9,5.4-3.8c2.1-0.9,4.4-1.4,6.6-1.4c2.3,0,4.3,0.3,6,1s3.3,1.7,4.6,3.1c1.4,1.6,2.5,3.5,3.3,5.8
				S507.2,81.9,507.2,85.1z M501.5,81c-0.4-3-1.4-5.4-3.1-7.1c-1.7-1.7-3.9-2.6-6.6-2.6s-5,0.9-6.8,2.6c-1.8,1.7-3.1,4.1-3.8,7.1
				H501.5z"/>
			<path class="st3" d="M242.5,177h-8.1c0-2,0.1-5.6,0.1-10.8c0-5.3,0.1-11.8,0.1-19.7c-0.5,0-3.4,0-8.7,0c-5.3,0-9.3,0-12,0
				c-3.2,0-7.1,0-11.6,0c-4.5,0-7,0-7.3,0c0,9,0,15.9,0.1,20.6c0,4.7,0.1,8,0.1,9.9h-8.1c0-2,0.1-5.4,0.1-10.4
				c0.1-5,0.1-13.4,0.1-25.2c0-3.6,0-7.9-0.1-13.1c0-5.1-0.1-10.7-0.2-16.7h8.1c0,4.9,0,9.8-0.1,14.6c-0.1,4.8-0.1,9.3-0.1,13.6
				c0.4,0,2.5,0,6.4,0c3.9,0,8.1,0,12.6,0c3.5,0,7.7,0,12.7,0c4.9,0,7.6,0,7.9,0c0-4.3,0-8.8-0.1-13.6c-0.1-4.8-0.1-9.6-0.1-14.6
				h8.1c-0.1,4.9-0.1,10.6-0.2,17s-0.1,11.7-0.1,15.8c0,9.6,0,16.9,0.1,22C242.5,171.5,242.5,175,242.5,177z"/>
			<path class="st3" d="M300.9,150.5h-35.3c0,3.5,0.8,6.6,2.2,9.5c1.4,2.9,3.6,5.3,6.6,7.2c1.9,1.2,4,2.1,6.4,2.7
				c2.4,0.6,5.3,0.9,8.7,0.9c1.9,0,3.6,0,5.1-0.1c1.5-0.1,2.5-0.2,2.9-0.2l-0.9,6.5c-0.3,0-1.1,0.1-2.6,0.2s-3.2,0.1-5.2,0.1
				c-5.2,0-9.7-0.7-13.6-2c-3.9-1.4-7-3.2-9.5-5.6c-2.1-2-3.9-4.5-5.4-7.6c-1.5-3.1-2.2-6.5-2.2-10.3c0-3.7,0.6-7.1,1.7-10.1
				c1.1-3,2.8-5.8,5-8.3c1.9-2.2,4.3-3.9,7.2-5.1c2.8-1.2,5.8-1.8,8.9-1.8c3,0,5.7,0.5,8.1,1.4c2.3,0.9,4.4,2.3,6.1,4.2
				c1.9,2.1,3.4,4.6,4.4,7.7C300.4,142.6,300.9,146.2,300.9,150.5z M293.4,145c-0.5-4-1.9-7.2-4.1-9.5c-2.2-2.3-5.2-3.4-8.8-3.4
				c-3.6,0-6.7,1.2-9.1,3.5c-2.4,2.3-4.1,5.5-5.1,9.4H293.4z"/>
			<path class="st3" d="M347.8,149.2c0,8.1,0,14.6,0,19.7s0,7.8,0,8.2c-0.3,0-1.8,0.2-4.5,0.4c-2.7,0.2-6.2,0.3-10.4,0.3
				c-2.7,0-5.4-0.2-8.1-0.7s-5-1.2-7-2.1c-2.6-1.2-4.7-2.8-6.3-4.9c-1.6-2.1-2.4-4.6-2.4-7.5c0-3.1,1-5.8,2.9-8
				c1.9-2.3,4.5-4.1,7.9-5.5c2.1-0.9,4.9-1.7,8.5-2.4c3.5-0.7,7.6-1.2,12.1-1.6c-0.2-2.5-0.8-4.6-1.9-6.2c-1.1-1.6-2.7-2.9-4.7-3.7
				c-1.4-0.6-3-1-4.8-1.2s-3.8-0.4-6.2-0.4c-1.5,0-2.7,0-3.7,0.1c-1,0.1-2.4,0.1-4.2,0.2l0.8-6.5c0.5,0,1.5-0.1,2.9-0.2
				c1.4-0.1,3.4-0.1,5.9-0.1c3.8,0,7.3,0.4,10.3,1.2c3,0.8,5.5,2.1,7.5,3.9c1.9,1.7,3.3,3.8,4.2,6.3S347.8,144.4,347.8,149.2z
				 M340.3,160.9c0-1.1,0-2.5,0-4.2c0-1.7,0-3.6,0-5.9c-1.4,0.1-3.9,0.4-7.5,0.9c-3.6,0.5-6.6,1.2-9,2.2c-1.8,0.7-3.4,1.7-4.9,3.1
				s-2.1,3.1-2.1,5.1c0,2.2,0.6,4,1.8,5.3c1.2,1.4,2.8,2.4,4.9,3.1c1.6,0.6,3.4,1,5.3,1.2s4,0.4,6.1,0.4c0.7,0,1.4,0,2.4,0
				c0.9,0,1.9-0.1,3-0.1c0-0.2,0-1.3,0-3.2C340.3,166.8,340.3,164.2,340.3,160.9z"/>
			<path class="st3" d="M393.8,133.3c-1.8,0.4-4.5,1.3-8.2,2.7s-8,3.2-12.8,5.5c0,0.4,0,2,0,4.9c0,2.9,0,5.6,0,8.1
				c0,3.8,0,8.4,0.1,13.7s0.1,8.2,0.1,8.8h-7.7c0-0.6,0-2.4,0.1-5.5c0.1-3.1,0.1-8.4,0.1-15.9c0-3,0-7.3,0-12.7
				c0-5.4-0.1-10.6-0.1-15.4h7.6v7.4l0,0c3.7-2.1,7.3-3.9,10.9-5.4c3.6-1.5,6.4-2.6,8.6-3.1L393.8,133.3z"/>
			<path class="st3" d="M430.5,170.9l-0.9,6.2c-0.2,0-0.8,0.1-1.7,0.1c-0.9,0-1.7,0-2.3,0c-6.7,0-11.7-1.4-15.1-4.2
				s-5.1-7.1-5.1-12.8c0-3.6,0-7.5,0.1-11.6c0-4.1,0.1-9.3,0.1-15.4h-8.2v-5.7h8.6V116h7.1v11.6h17.5v5.7h-17.5c0,0.7,0,2.7-0.1,6.1
				c0,3.4-0.1,5.9-0.1,7.5c0,1.4,0,3,0,5c0,2,0,4.3,0,7.1c0,4.2,1.1,7.3,3.4,9.2c2.3,1.9,5.8,2.8,10.5,2.8c0.6,0,1.3,0,2.1,0
				C429.8,171,430.3,170.9,430.5,170.9z"/>
		</g>
	</g>
	<g>
		<g>
		</g>
	</g>
	<text transform="matrix(1 0 0 1 155.8015 223.5193)" class="st2 st4 st5">Edgar Allan Poe</text>
</g>
<g id="Layer_2_00000092442897081227789730000002641372836869064344_" class="st6">
</g>
<path class="st3" d="M309.7,410.7c0,0,44.4-154.1,241.3-139.9l35.5,69.5c0,0,11.6,88.9,14.4,110.4c2.9,21.4-55.9,118.5-88.6,142.7
	S311.3,719,311.3,719L82.9,574.9c0,0-68.5-127-62.8-171.3S36,269.9,36,269.9S259.6,246.6,309.7,410.7z"/>
<line class="st7" x1="74" y1="292" x2="42" y2="384"/>
<line class="st7" x1="103.6" y1="302.3" x2="71.6" y2="394.3"/>
<line class="st7" x1="132" y1="341.4" x2="43.1" y2="301.7"/>
<line class="st7" x1="118.6" y1="371.6" x2="29.6" y2="331.9"/>
<line class="st7" x1="302.2" y1="369" x2="349.1" y2="463.5"/>
<line class="st7" x1="332.6" y1="495.8" x2="349.1" y2="462.1"/>
<line class="st7" x1="334" y1="436.1" x2="347.4" y2="411.8"/>
</svg>
